<?xml version="1.0" encoding="UTF-8" standalone="no"?>
<!-- Generator: Adobe Illustrator 28.1.0, SVG Export Plug-In . SVG Version: 6.00 Build 0)  -->

<svg
   version="1.0"
   id="katman_1"
   x="0px"
   y="0px"
   viewBox="0 0 306.89998 271.23762"
   xml:space="preserve"
   sodipodi:docname="bsky-icon.svg"
   width="306.89999"
   height="271.23761"
   inkscape:version="1.2.2 (732a01da63, 2022-12-09)"
   xmlns:inkscape="http://www.inkscape.org/namespaces/inkscape"
   xmlns:sodipodi="http://sodipodi.sourceforge.net/DTD/sodipodi-0.dtd"
   xmlns:xlink="http://www.w3.org/1999/xlink"
   xmlns="http://www.w3.org/2000/svg"
   xmlns:svg="http://www.w3.org/2000/svg"><defs
   id="defs20"><linearGradient
   id="linearGradient3894"
   gradientUnits="userSpaceOnUse"
   x1="5.2934999"
   y1="595.30438"
   x2="5.2934999"
   y2="591.96838"
   gradientTransform="matrix(92,0,0,-81.2664,-66.0551,48427.199)">
			<stop
   offset="0"
   style="stop-color:#373737;stop-opacity:1;"
   id="stop3890" />
			<stop
   offset="1"
   style="stop-color:#545454;stop-opacity:1;"
   id="stop3892" />
		</linearGradient><linearGradient
   inkscape:collect="always"
   xlink:href="#SVGID_1_"
   id="linearGradient3834"
   gradientUnits="userSpaceOnUse"
   gradientTransform="matrix(92,0,0,-81.2664,-333.5551,48378.252)"
   x1="5.2934999"
   y1="595.30438"
   x2="5.2934999"
   y2="591.96838" /><linearGradient
   inkscape:collect="always"
   xlink:href="#linearGradient3894"
   id="linearGradient3842"
   gradientUnits="userSpaceOnUse"
   gradientTransform="matrix(92,0,0,-81.2664,-333.5551,48378.252)"
   x1="5.2934999"
   y1="595.30438"
   x2="5.2934999"
   y2="591.96838" />
	
	

		
			<linearGradient
   id="SVGID_1_"
   gradientUnits="userSpaceOnUse"
   x1="5.2934999"
   y1="595.30438"
   x2="5.2934999"
   y2="591.96838"
   gradientTransform="matrix(92,0,0,-81.2664,-66.0551,48427.199)">
			<stop
   offset="0"
   style="stop-color:#343434;stop-opacity:1;"
   id="stop4" />
			<stop
   offset="1"
   style="stop-color:#646464;stop-opacity:1;"
   id="stop6" />
		</linearGradient>
		
	
	
	

		
			<linearGradient
   id="linearGradient3824"
   gradientUnits="userSpaceOnUse"
   x1="5.2934999"
   y1="595.30438"
   x2="5.2934999"
   y2="591.96838"
   gradientTransform="matrix(92,0,0,-81.2664,-66.0551,48427.199)">
			<stop
   offset="0"
   style="stop-color:#343434;stop-opacity:1;"
   id="stop3820" />
			<stop
   offset="1"
   style="stop-color:#646464;stop-opacity:1;"
   id="stop3822" />
		</linearGradient>
		
	</defs><sodipodi:namedview
   id="namedview18"
   pagecolor="#ffffff"
   bordercolor="#000000"
   borderopacity="0.25"
   inkscape:showpageshadow="2"
   inkscape:pageopacity="0.0"
   inkscape:pagecheckerboard="0"
   inkscape:deskcolor="#d1d1d1"
   showgrid="false"
   inkscape:zoom="2.2425964"
   inkscape:cx="131.321"
   inkscape:cy="125.30119"
   inkscape:window-width="1920"
   inkscape:window-height="1094"
   inkscape:window-x="-11"
   inkscape:window-y="-11"
   inkscape:window-maximized="1"
   inkscape:current-layer="katman_1" />
<style
   type="text/css"
   id="style2">
	.st0{fill:url(#SVGID_1_);}
</style>
<path
   class="st0"
   d="m 66.5,18.252759 c 35.2,26.5 73,80.2 86.9,109.100001 v 76.2 c 0,-1.6 -0.6,0.2 -2,4.2 -7.3,21.4 -35.6,104.8 -100.3,38.1 -34.1,-35.1 -18.3,-70.2 43.8,-80.8 -35.5,6.1 -75.4,-4 -86.4,-43.2 C 5.3,110.55276 0,40.952759 0,31.552759 c 0,-47.2 41.1,-32.5 66.5,-13.3 z m 173.9,0 c -35.2,26.5 -73,80.2 -86.9,109.100001 v 76.2 c 0,-1.6 0.6,0.2 2,4.2 7.3,21.4 35.6,104.8 100.3,38.1 34.1,-35.1 18.3,-70.2 -43.8,-80.8 35.5,6.1 75.4,-4 86.4,-43.2 3.2,-11.3 8.5,-80.900001 8.5,-90.300001 0,-47.2 -41.1,-32.5 -66.5,-13.3 z"
   id="path3826"
   style="display:inline;fill:url(#linearGradient3834)" /><path
   class="st0"
   d="m 66.5,18.252759 c 35.2,26.5 73,80.2 86.9,109.100001 v 76.2 c 0,-1.6 -0.6,0.2 -2,4.2 -7.3,21.4 -35.6,104.8 -100.3,38.1 -34.1,-35.1 -18.3,-70.2 43.8,-80.8 -35.5,6.1 -75.4,-4 -86.4,-43.2 C 5.3,110.55276 0,40.952759 0,31.552759 c 0,-47.2 41.1,-32.5 66.5,-13.3 z m 173.9,0 c -35.2,26.5 -73,80.2 -86.9,109.100001 v 76.2 c 0,-1.6 0.6,0.2 2,4.2 7.3,21.4 35.6,104.8 100.3,38.1 34.1,-35.1 18.3,-70.2 -43.8,-80.8 35.5,6.1 75.4,-4 86.4,-43.2 3.2,-11.3 8.5,-80.900001 8.5,-90.300001 0,-47.2 -41.1,-32.5 -66.5,-13.3 z"
   id="path9"
   style="display:none;fill:url(#linearGradient3842)" />
</svg>
