<?xml version="1.0" encoding="UTF-8" standalone="no"?>
<!-- Created with Inkscape (http://www.inkscape.org/) -->

<svg
   width="135.13766mm"
   height="132.01752mm"
   viewBox="0 0 135.13767 132.01752"
   version="1.1"
   id="svg3770"
   xml:space="preserve"
   inkscape:version="1.2.2 (732a01da63, 2022-12-09)"
   sodipodi:docname="github-icon.svg"
   xmlns:inkscape="http://www.inkscape.org/namespaces/inkscape"
   xmlns:sodipodi="http://sodipodi.sourceforge.net/DTD/sodipodi-0.dtd"
   xmlns="http://www.w3.org/2000/svg"
   xmlns:svg="http://www.w3.org/2000/svg"><sodipodi:namedview
     id="namedview3772"
     pagecolor="#ffffff"
     bordercolor="#000000"
     borderopacity="0.25"
     inkscape:showpageshadow="2"
     inkscape:pageopacity="0.0"
     inkscape:pagecheckerboard="0"
     inkscape:deskcolor="#d1d1d1"
     inkscape:document-units="mm"
     showgrid="false"
     inkscape:zoom="0.5946522"
     inkscape:cx="-64.743727"
     inkscape:cy="319.5145"
     inkscape:window-width="1920"
     inkscape:window-height="1094"
     inkscape:window-x="-11"
     inkscape:window-y="-11"
     inkscape:window-maximized="1"
     inkscape:current-layer="layer1" /><defs
     id="defs3767" /><g
     inkscape:label="Layer 1"
     inkscape:groupmode="layer"
     id="layer1"
     transform="translate(-131.33975,-152.01389)"><path
       style="fill:#5a5a5a;fill-opacity:1;stroke-width:0.264583"
       d="m 177.74866,283.96874 c -1.28548,-0.25076 -6.78707,-2.54016 -9.88497,-4.11347 -16.25036,-8.25295 -29.08706,-23.91112 -34.10916,-41.60627 -1.74088,-6.1339 -2.40845,-11.29076 -2.41471,-18.65312 -0.005,-6.04245 0.2501,-8.73594 1.32487,-13.98136 5.00427,-24.42316 23.95854,-44.60957 48.09905,-51.22575 13.79583,-3.78101 29.57685,-3.01487 42.57339,2.06687 15.82754,6.18868 28.56189,17.79679 36.17954,32.97978 3.48079,6.93768 5.5871,13.89318 6.64956,21.95838 0.41715,3.16663 0.41432,13.0828 -0.005,16.40416 -1.32357,10.49168 -4.79195,20.05378 -10.34911,28.53182 -8.0231,12.2401 -18.90535,21.16659 -32.15856,26.37901 -4.08916,1.60825 -5.55307,1.70277 -6.8164,0.44015 l -0.85652,-0.85603 -0.16031,-11.96779 c -0.17158,-12.80941 -0.23779,-13.48001 -1.6421,-16.63348 -0.34773,-0.78084 -1.11902,-2.03216 -1.71396,-2.78069 l -1.08173,-1.36097 2.16676,-0.30327 c 6.92663,-0.96948 12.32251,-2.86792 16.97826,-5.97348 5.66189,-3.7767 9.1506,-9.63785 10.8649,-18.25339 0.56413,-2.83512 0.80768,-10.79391 0.40837,-13.34469 -0.68078,-4.34884 -2.83234,-9.17092 -5.52912,-12.39194 l -1.06244,-1.26897 0.6504,-2.23991 c 1.15474,-3.97679 0.8469,-9.55348 -0.7774,-14.08286 -0.51545,-1.43733 -0.68154,-1.64552 -1.4762,-1.85038 -2.45866,-0.63382 -9.43626,1.92343 -15.48578,5.67546 -1.50698,0.93467 -2.31362,1.28081 -2.79106,1.19769 -0.36932,-0.0643 -1.87863,-0.37131 -3.35402,-0.68226 -8.43934,-1.77866 -17.68104,-1.77866 -26.12038,0 -1.47539,0.31095 -2.99179,0.61901 -3.3698,0.68458 -0.49543,0.0859 -1.21127,-0.21666 -2.56446,-1.08403 -5.39483,-3.458 -13.03321,-6.25389 -15.84088,-5.79827 -0.85264,0.13837 -0.91373,0.22927 -1.54521,2.29956 -1.02403,3.35728 -1.28342,5.07362 -1.26314,8.35789 0.0151,2.43859 0.15042,3.48583 0.68175,5.27447 l 0.66297,2.23177 -1.01845,1.20782 c -2.67229,3.16921 -4.8899,8.13512 -5.5684,12.46938 -0.39988,2.55443 -0.15537,10.5149 0.40981,13.34194 1.35548,6.78024 3.98471,12.17395 7.65001,15.69355 2.75496,2.64545 7.19779,5.21299 11.54266,6.6706 1.88838,0.6335 6.93922,1.70453 9.31846,1.97597 l 1.51326,0.17264 -1.03038,1.30352 c -1.33853,1.69338 -2.30575,3.76538 -2.81936,6.03971 -0.40206,1.7804 -0.44025,1.83674 -1.51441,2.23456 -2.36878,0.8773 -3.60732,1.07168 -6.92278,1.08645 -3.39655,0.0151 -3.46199,0.004 -5.23019,-0.88319 -2.28985,-1.14903 -4.27008,-3.05978 -6.08282,-5.86941 -2.62571,-4.06969 -6.61463,-6.93689 -10.14487,-7.29202 -2.03104,-0.20432 -3.54524,0.23298 -3.54524,1.02386 0,0.60248 2.12582,2.75444 3.99884,4.04801 0.63829,0.44082 1.79173,1.63145 2.56319,2.64583 1.25818,1.65436 1.89222,2.82158 4.21423,7.75815 1.27297,2.7063 4.47201,5.19768 8.00915,6.23743 0.80037,0.23527 3.12208,0.56131 5.15938,0.72454 3.02634,0.24246 4.17622,0.22713 6.28385,-0.0838 l 2.57969,-0.38059 0.0652,4.64223 c 0.13108,9.3326 0.0729,9.83269 -1.24389,10.6955 -0.69633,0.45625 -2.11276,0.69187 -3.05464,0.50813 z"
       id="path4629" /></g></svg>
