<?xml version="1.0" encoding="UTF-8" standalone="no"?>
<!-- Created with Inkscape (http://www.inkscape.org/) -->

<svg
   width="117.87187mm"
   height="118.71022mm"
   viewBox="0 0 117.87187 118.71022"
   version="1.1"
   id="svg5"
   xml:space="preserve"
   inkscape:version="1.2.2 (732a01da63, 2022-12-09)"
   sodipodi:docname="linkedin-icon.svg"
   xmlns:inkscape="http://www.inkscape.org/namespaces/inkscape"
   xmlns:sodipodi="http://sodipodi.sourceforge.net/DTD/sodipodi-0.dtd"
   xmlns="http://www.w3.org/2000/svg"
   xmlns:svg="http://www.w3.org/2000/svg"><sodipodi:namedview
     id="namedview7"
     pagecolor="#ffffff"
     bordercolor="#000000"
     borderopacity="0.25"
     inkscape:showpageshadow="2"
     inkscape:pageopacity="0.0"
     inkscape:pagecheckerboard="0"
     inkscape:deskcolor="#d1d1d1"
     inkscape:document-units="mm"
     showgrid="false"
     inkscape:zoom="0.5946522"
     inkscape:cx="343.05767"
     inkscape:cy="501.13327"
     inkscape:window-width="1920"
     inkscape:window-height="1094"
     inkscape:window-x="-11"
     inkscape:window-y="-11"
     inkscape:window-maximized="1"
     inkscape:current-layer="layer1" /><defs
     id="defs2" /><g
     inkscape:label="Layer 1"
     inkscape:groupmode="layer"
     id="layer1"
     transform="translate(-42.179187,-31.50765)"><path
       style="fill:#5a5a5a;fill-opacity:1;stroke-width:0.264583"
       d="m 47.565191,149.72522 c -1.893224,-0.72998 -3.608715,-2.32828 -4.575447,-4.26289 l -0.810557,-1.62206 V 91.108082 c 0,-52.659093 7.59e-4,-52.734223 0.547054,-54.194323 0.681571,-1.82166 2.491482,-3.68904 4.479407,-4.62163 l 1.455831,-0.68296 51.706831,-0.0694 c 56.19719,-0.0755 53.41416,-0.143 55.78559,1.35401 1.32465,0.83622 2.64842,2.3666 3.34003,3.86134 l 0.55713,1.20407 v 52.916663 52.916658 l -0.69317,1.47809 c -0.84419,1.80017 -2.17715,3.17708 -4.01203,4.14433 l -1.38022,0.72758 -52.51979,0.0537 c -51.80407,0.053 -52.538334,0.0466 -53.880659,-0.471 z M 77.897936,104.10148 V 77.242752 l -8.92969,0.0697 -8.929685,0.0697 -0.06741,26.789058 -0.06741,26.78906 h 8.997095 8.99709 z m 27.839874,9.99154 0.0737,-16.867188 0.74987,-1.4242 c 1.7977,-3.41432 4.59941,-5.31865 8.13615,-5.53017 4.83069,-0.28891 7.92265,2.13876 9.10362,7.14774 0.32211,1.36622 0.39176,4.469768 0.39499,17.599858 l 0.004,15.94114 h 9.01088 9.01089 l -0.10058,-18.05781 c -0.10906,-19.581358 -0.0686,-18.999908 -1.65244,-23.755728 -2.19352,-6.58653 -7.23492,-11.15729 -13.88063,-12.58478 -2.64057,-0.5672 -7.64692,-0.49634 -10.14054,0.14351 -3.88965,0.99807 -7.27689,3.26805 -9.61416,6.443 l -1.13907,1.54733 -0.0737,-3.65682 -0.0737,-3.65682 -8.929694,-0.0697 -8.92969,-0.0697 v 26.858728 26.85872 h 8.98832 8.988314 z M 72.680596,69.418362 c 1.87299,-0.66083 3.33179,-1.6668 4.42779,-3.05334 2.11735,-2.67865 2.45195,-6.54831 0.84794,-9.80652 -0.98899,-2.00893 -2.18667,-3.17111 -4.27965,-4.15279 -1.325,-0.62148 -1.77516,-0.68821 -4.64228,-0.68821 -2.87752,0 -3.31432,0.0653 -4.66196,0.69722 -4.876436,2.28651 -6.777558,7.84186 -4.333883,12.66422 0.669941,1.32206 2.486512,3.13838 3.837578,3.83705 2.246275,1.16159 6.283165,1.39193 8.804465,0.50237 z"
       id="path302" /></g></svg>
