<?xml version="1.0" encoding="UTF-8" standalone="no"?>
<!-- Created with Inkscape (http://www.inkscape.org/) -->

<svg
   width="134.82216mm"
   height="109.88548mm"
   viewBox="0 0 134.82216 109.88548"
   version="1.1"
   id="svg5"
   xml:space="preserve"
   inkscape:version="1.2.2 (732a01da63, 2022-12-09)"
   sodipodi:docname="twitter-icon.svg"
   xmlns:inkscape="http://www.inkscape.org/namespaces/inkscape"
   xmlns:sodipodi="http://sodipodi.sourceforge.net/DTD/sodipodi-0.dtd"
   xmlns="http://www.w3.org/2000/svg"
   xmlns:svg="http://www.w3.org/2000/svg"><sodipodi:namedview
     id="namedview7"
     pagecolor="#ffffff"
     bordercolor="#000000"
     borderopacity="0.25"
     inkscape:showpageshadow="2"
     inkscape:pageopacity="0.0"
     inkscape:pagecheckerboard="0"
     inkscape:deskcolor="#d1d1d1"
     inkscape:document-units="mm"
     showgrid="false"
     inkscape:zoom="0.84096521"
     inkscape:cx="602.28413"
     inkscape:cy="164.09716"
     inkscape:window-width="1920"
     inkscape:window-height="1094"
     inkscape:window-x="-11"
     inkscape:window-y="-11"
     inkscape:window-maximized="1"
     inkscape:current-layer="layer1" /><defs
     id="defs2" /><g
     inkscape:label="Layer 1"
     inkscape:groupmode="layer"
     id="layer1"
     transform="translate(-0.20065918,-4.1947447)"><path
       style="fill:#5a5a5a;fill-opacity:1;stroke-width:0.264583"
       d="M 37.877386,114.02207 C 28.297541,113.28202 20.242718,111.44655 12.477387,108.23412 9.7961922,107.12494 3.6610492,104.02659 1.5765232,102.729 l -1.37586402,-0.85645 4.81386302,0.1 c 7.1089158,0.14763 12.7703988,-0.65526 18.9789658,-2.691535 3.150956,-1.03344 8.077842,-3.21248 10.444315,-4.61926 2.235297,-1.32879 6.217708,-4.08149 6.217708,-4.29777 0,-0.0995 -0.922735,-0.25492 -2.050521,-0.34531 -7.451127,-0.59719 -15.085445,-5.09867 -19.762031,-11.65244 -1.198725,-1.67989 -3.16723,-5.409 -3.450204,-6.53601 l -0.161534,-0.64334 h 4.576208 c 2.924154,0 5.147017,-0.13065 6.157357,-0.36191 l 1.58115,-0.3619 -2.110316,-0.61226 C 14.449249,66.663305 6.2269582,56.625732 5.5440552,45.567634 l -0.160595,-2.600465 1.033422,0.447656 c 4.0780728,1.766533 7.7100768,2.756167 10.1468038,2.764756 l 1.175882,0.0041 -0.795138,-0.595313 C 10.393339,40.683672 6.4966182,33.715968 5.7357472,25.546228 c -0.256337,-2.752376 0.05835,-6.588406 0.764641,-9.32103 0.543872,-2.104225 2.617825,-6.8925011 2.928151,-6.7604231 0.09584,0.04079 1.0107288,1.0266621 2.0330948,2.1908281 11.73069,13.357714 28.17898,22.534755 45.73033,25.514455 3.11,0.527987 9.1144,1.178092 9.28698,1.005515 0.048,-0.048 -0.0423,-0.914948 -0.20071,-1.926543 -0.41278,-2.636279 -0.12119,-8.782306 0.52661,-11.099677 0.76713,-2.744227 1.25714,-3.97527 2.54889,-6.403504 8.41188,-15.8126881 29.86819,-19.47367313 42.980896,-7.33362 l 1.59781,1.47929 1.92455,-0.428981 c 4.18002,-0.931721 9.95958,-3.1078831 13.63237,-5.1329531 1.05502,-0.581712 1.91677,-0.917893 1.915,-0.74707 -0.008,0.747564 -1.90984,4.5753401 -3.30411,6.6493081 -1.65564,2.462757 -5.49681,6.313401 -7.42518,7.443502 -0.6587,0.386022 -1.16222,0.737278 -1.11893,0.780566 0.15739,0.157395 5.44506,-0.891291 8.01962,-1.590505 1.45266,-0.394523 3.70064,-1.125398 4.99551,-1.624166 1.29488,-0.498768 2.39693,-0.864239 2.44901,-0.812157 0.0521,0.05208 -0.7038,1.15561 -1.67974,2.452285 -2.32883,3.094183 -6.48823,7.374323 -9.53563,9.812445 l -2.44331,1.954803 0.15498,1.909752 c 0.18076,2.227548 -0.25205,8.845128 -0.84147,12.866009 -2.87494,19.611878 -13.80006,38.911018 -28.815926,50.903088 -11.59832,9.262745 -24.44037,14.511785 -39.95888,16.332735 -2.51774,0.29543 -11.786761,0.53464 -14.022918,0.36189 z"
       id="path2317" /></g></svg>
